<svg xmlns="http://www.w3.org/2000/svg" width="88.786" height="86.784" viewBox="0 0 88.786 86.784">
  <g id="coffee_bean" data-name="coffee bean" transform="translate(-286.644 -2219.404)">
    <g id="Group_1" data-name="Group 1" transform="matrix(0.921, 0.391, -0.391, 0.921, 837.103, 33.537)">
      <ellipse id="Ellipse_1" data-name="Ellipse 1" cx="16" cy="21" rx="16" ry="21" transform="translate(402 2204)" fill="#481f09"/>
      <path id="Path_2" data-name="Path 2" d="M2090,2204.662s-7.027,8.482,0,20.146,0,25.094,0,25.094" transform="translate(-1672 -2.458)" fill="none" stroke="#fff" stroke-width="3"/>
    </g>
    <g id="Group_2" data-name="Group 2" transform="matrix(0.358, 0.934, -0.934, 0.358, 2239.402, 1056.281)">
      <ellipse id="Ellipse_1-2" data-name="Ellipse 1" cx="16" cy="21" rx="16" ry="21" transform="translate(402 2204)" fill="#481f09"/>
      <path id="Path_2-2" data-name="Path 2" d="M2090,2204.662s-7.027,8.482,0,20.146,0,25.094,0,25.094" transform="translate(-1672 -2.458)" fill="none" stroke="#fff" stroke-width="3"/>
    </g>
    <g id="Group_3" data-name="Group 3" transform="matrix(0.682, 0.731, -0.731, 0.682, 1663.908, 457.012)">
      <ellipse id="Ellipse_1-3" data-name="Ellipse 1" cx="16" cy="21" rx="16" ry="21" transform="translate(402 2204)" fill="#481f09"/>
      <path id="Path_2-3" data-name="Path 2" d="M2090,2204.662s-7.027,8.482,0,20.146,0,25.094,0,25.094" transform="translate(-1672 -2.458)" fill="none" stroke="#fff" stroke-width="3"/>
    </g>
  </g>
</svg>
