<svg xmlns="http://www.w3.org/2000/svg" width="67.066" height="89.422" viewBox="0 0 67.066 89.422">
  <path id="Icon_awesome-award" data-name="Icon awesome-award" d="M16.962,63.334c-1.518-1.518-.727-1.09-4.387-2.07a12.6,12.6,0,0,1-4.441-2.326L.21,78.366A2.8,2.8,0,0,0,2.9,82.213l9.2-.351,6.329,6.686a2.794,2.794,0,0,0,4.616-.866l9.09-22.289a12.533,12.533,0,0,1-15.18-2.059ZM66.856,78.366,58.932,58.938a12.572,12.572,0,0,1-4.441,2.326c-3.68.985-2.873.555-4.387,2.07a12.536,12.536,0,0,1-15.182,2.059l9.09,22.289a2.794,2.794,0,0,0,4.616.866l6.331-6.686,9.2.351a2.8,2.8,0,0,0,2.695-3.848ZM45.933,59.381c2.669-2.716,2.974-2.482,6.775-3.517A7.1,7.1,0,0,0,57.68,50.8c1.306-4.96.968-4.361,4.532-7.99a7.245,7.245,0,0,0,1.82-6.913c-1.3-4.957-1.306-4.265,0-9.227a7.245,7.245,0,0,0-1.82-6.913c-3.565-3.629-3.226-3.032-4.532-7.99a7.1,7.1,0,0,0-4.972-5.061c-4.869-1.329-4.282-.982-7.85-4.612A6.949,6.949,0,0,0,38.065.244C33.2,1.571,33.877,1.573,29,.244A6.945,6.945,0,0,0,22.209,2.1C18.644,5.726,19.231,5.38,14.36,6.709A7.1,7.1,0,0,0,9.388,11.77c-1.3,4.958-.968,4.361-4.532,7.99a7.241,7.241,0,0,0-1.82,6.913c1.3,4.953,1.306,4.261,0,9.225a7.249,7.249,0,0,0,1.82,6.914c3.565,3.629,3.226,3.03,4.532,7.99a7.1,7.1,0,0,0,4.972,5.061c3.909,1.065,4.2.9,6.773,3.517A6.941,6.941,0,0,0,29.82,60.4a6.929,6.929,0,0,1,7.428,0A6.939,6.939,0,0,0,45.933,59.381ZM17.056,30.732A16.479,16.479,0,1,1,33.533,47.5,16.625,16.625,0,0,1,17.056,30.732Z" transform="translate(0 0)" fill="#481f09"/>
</svg>
