<svg xmlns="http://www.w3.org/2000/svg" width="50.289" height="89.422" viewBox="0 0 50.289 89.422">
  <path id="Icon_awesome-dollar-sign" data-name="Icon awesome-dollar-sign" d="M36.533,40.764,17.671,35.245a5.151,5.151,0,0,1,1.45-10.095H30.7a10.661,10.661,0,0,1,5.973,1.834,2.723,2.723,0,0,0,3.406-.349L46.157,20.7a2.831,2.831,0,0,0-.314-4.279,24.7,24.7,0,0,0-15.107-5.24V2.794A2.8,2.8,0,0,0,27.941,0H22.352a2.8,2.8,0,0,0-2.794,2.794v8.383h-.437A19.136,19.136,0,0,0,.084,32.066c.734,8.051,6.881,14.6,14.636,16.871l17.9,5.24a5.151,5.151,0,0,1-1.45,10.095H19.592a10.661,10.661,0,0,1-5.973-1.834,2.723,2.723,0,0,0-3.406.349L4.135,68.726A2.831,2.831,0,0,0,4.45,73a24.7,24.7,0,0,0,15.107,5.24v8.383a2.8,2.8,0,0,0,2.794,2.794h5.589a2.8,2.8,0,0,0,2.794-2.794V78.209c8.139-.157,15.771-5,18.461-12.7A19.178,19.178,0,0,0,36.533,40.764Z" transform="translate(-0.003)" fill="#481f09"/>
</svg>
